<?xml version="1.0" encoding="utf-8"?>
<!-- Generator: Adobe Illustrator 26.1.0, SVG Export Plug-In . SVG Version: 6.00 Build 0)  -->
<svg version="1.1" id="Capa_1" xmlns="http://www.w3.org/2000/svg" xmlns:xlink="http://www.w3.org/1999/xlink" x="0px" y="0px"
	 viewBox="0 0 105 30" style="enable-background:new 0 0 105 30;" xml:space="preserve">
<style type="text/css">
	.st0{fill:#BD1124;}
	.st1{fill:#017538;}
</style>
<g>
	<g>
		<path class="st0" d="M29.34,20.32c0.93,0,1.75-0.22,2.44-0.66c0.7-0.44,1.08-0.98,1.16-1.64h2.47c-0.05,0.68-0.35,1.32-0.9,1.94
			c-0.56,0.61-1.3,1.1-2.22,1.47c-0.93,0.36-1.91,0.55-2.94,0.55c-2.08,0-3.73-0.54-4.96-1.61c-1.23-1.08-1.84-2.55-1.84-4.41v-0.34
			c0-1.15,0.27-2.18,0.82-3.07c0.55-0.9,1.33-1.59,2.35-2.09c1.02-0.5,2.23-0.74,3.62-0.74c1.71,0,3.13,0.4,4.27,1.19
			c1.13,0.79,1.74,1.83,1.81,3.1h-2.47c-0.08-0.77-0.45-1.39-1.12-1.89c-0.67-0.49-1.5-0.74-2.49-0.74c-1.33,0-2.35,0.37-3.08,1.11
			c-0.73,0.74-1.09,1.81-1.09,3.21v0.38c0,1.36,0.36,2.41,1.09,3.15C26.96,19.95,27.99,20.32,29.34,20.32z"/>
	</g>
	<g>
		<path class="st0" d="M18.88,21.75c-0.16-0.24-0.29-0.66-0.39-1.26c-1.29,0.99-2.83,1.48-4.62,1.48c-1.6,0-2.92-0.33-3.94-1
			s-1.54-1.51-1.54-2.54c0-1.25,0.64-2.22,1.93-2.91c1.29-0.69,3.1-1.04,5.43-1.04h2.7v-0.94c0-0.72-0.29-1.29-0.87-1.71
			s-1.44-0.64-2.57-0.64c-0.99,0-1.82,0.18-2.49,0.55c-0.67,0.37-1.01,0.82-1.01,1.34H8.72c0-0.6,0.29-1.18,0.86-1.73
			c0.58-0.56,1.36-1,2.34-1.32c0.99-0.32,2.07-0.49,3.25-0.49c1.87,0,3.34,0.35,4.4,1.04c1.06,0.69,1.61,1.64,1.65,2.85v5.51
			c0,1.1,0.19,1.97,0.57,2.62v0.18H18.88z M14.27,20.19c0.87,0,1.7-0.17,2.48-0.5c0.78-0.33,1.35-0.76,1.7-1.3v-2.46h-2.18
			c-3.4,0-5.1,0.73-5.1,2.2c0,0.64,0.29,1.14,0.87,1.51C12.61,20.01,13.36,20.19,14.27,20.19z"/>
	</g>
	<path class="st0" d="M53.94,20.58c-1.02,0.93-2.51,1.39-4.47,1.39c-1.63,0-2.87-0.37-3.72-1.1c-0.85-0.73-1.28-1.82-1.29-3.25v-7.7
		h2.61v7.65c0,1.79,0.94,2.69,2.82,2.69c1.99,0,3.32-0.58,3.98-1.73V9.92h2.61v11.83h-2.48L53.94,20.58z"/>
	<path class="st0" d="M60.16,10.14l0.07,1.31c1.12-1.02,2.63-1.53,4.53-1.53c2.14,0,3.59,0.63,4.36,1.9
		c0.51-0.57,1.17-1.03,1.98-1.38c0.81-0.35,1.78-0.52,2.89-0.52c3.35,0,5.05,1.38,5.11,4.12v7.93h-2.61v-7.81
		c0-0.85-0.25-1.48-0.75-1.9c-0.5-0.42-1.34-0.63-2.51-0.63c-0.97,0-1.77,0.22-2.41,0.67c-0.64,0.45-1.01,1.05-1.11,1.81v7.85h-2.62
		v-7.75c0-1.72-1.09-2.58-3.26-2.58c-1.71,0-2.88,0.57-3.51,1.7v8.64h-2.61V10.14H60.16z"/>
	<path class="st0" d="M86.25,21.97c-1.87,0-3.39-0.53-4.57-1.58c-1.17-1.05-1.76-2.46-1.76-4.23v-0.37c0-1.17,0.26-2.22,0.78-3.14
		c0.52-0.92,1.25-1.64,2.19-2.16c0.94-0.52,1.96-0.78,3.06-0.78c1.79,0,3.19,0.51,4.19,1.52c1,1.01,1.49,2.47,1.49,4.35v0.84h-9.35
		c0.03,1.17,0.43,2.11,1.19,2.83c0.76,0.72,1.73,1.08,2.9,1.08c0.83,0,1.54-0.14,2.12-0.44c0.58-0.29,1.08-0.68,1.52-1.16l1.44,0.96
		C90.3,21.21,88.56,21.97,86.25,21.97z M85.96,11.36c-0.95,0-1.75,0.3-2.4,0.89c-0.65,0.6-1.05,1.43-1.2,2.5h6.92V14.6
		c-0.07-1.03-0.39-1.82-0.97-2.39C87.73,11.65,86.94,11.36,85.96,11.36z"/>
	<path class="st0" d="M4.88,21.97H2.02V8.62c0-1.78,1.44-3.22,3.22-3.22h4.64v2.46H5.83c-0.8,0-1.45,0.65-1.45,1.45v1.08h3v2.3H4.95
		L4.88,21.97z"/>
	<path class="st0" d="M36.62,6.74h3.05v3.01h2.53v2.35h-2.59v7.13c0,0.44,0.36,0.8,0.8,0.8h2.08v1.95h-3.07
		c-1.55,0-2.81-1.26-2.81-2.81v-7.07L34.6,9.75h2.02V6.74z"/>
	<g>
		<polygon class="st0" points="100.05,9.75 97.32,13.48 94.6,9.75 91.67,9.75 94.78,14 96.95,14 97.7,14 99.87,14 102.98,9.75 		"/>
		<polygon class="st1" points="102.95,21.18 99.84,16.93 97.67,16.93 96.92,16.93 94.75,16.93 89.13,24.6 92.08,24.6 97.29,17.45 
			100.02,21.18 		"/>
	</g>
</g>
</svg>
